<svg xmlns="http://www.w3.org/2000/svg" viewBox="790 0 230 120">
  <path d="M 979.18 105.18 C973.41,107.95 971.27,108.43 963.50,108.65 C949.47,109.05 942.67,106.59 933.21,97.64 C910.80,76.44 918.55,39.98 947.81,28.96 C952.54,27.18 955.11,26.88 963.00,27.19 C971.11,27.51 973.48,28.02 979.24,30.72 C987.93,34.80 994.70,41.58 998.99,50.52 C1002.04,56.87 1002.35,58.36 1002.42,67.00 C1002.48,74.70 1002.05,77.68 1000.14,82.73 C996.80,91.52 988.01,100.93 979.18,105.18 ZM 861.57 105.04 C855.54,108.01 853.59,108.46 845.60,108.71 C835.10,109.05 828.08,107.21 820.85,102.24 C794.47,84.09 797.10,45.42 825.70,30.90 C832.17,27.62 832.79,27.50 843.95,27.50 C854.57,27.50 855.96,27.72 861.19,30.30 C870.01,34.63 876.39,40.98 880.73,49.78 C884.37,57.13 884.50,57.76 884.50,67.97 C884.50,77.98 884.32,78.91 881.08,85.49 C876.75,94.29 870.31,100.74 861.57,105.04 Z" fill="rgb(71,115,227)"/>
</svg>
